<mxfile host="app.diagrams.net" agent="Mozilla/5.0 (Windows NT 10.0; Win64; x64) AppleWebKit/537.36 (KHTML, like Gecko) Chrome/127.0.0.0 Safari/537.36 Edg/127.0.0.0" version="24.7.7">
  <diagram name="第 1 页" id="e_IjWnhNF0fLR_qOTUyp">
    <mxGraphModel dx="1365" dy="766" grid="1" gridSize="10" guides="1" tooltips="1" connect="1" arrows="1" fold="1" page="1" pageScale="1" pageWidth="827" pageHeight="1169" math="0" shadow="0">
      <root>
        <mxCell id="0" />
        <mxCell id="1" parent="0" />
        <mxCell id="D3yn_jxY5x2qavKiKTVe-3" value="" style="edgeStyle=orthogonalEdgeStyle;rounded=0;orthogonalLoop=1;jettySize=auto;html=1;fontSize=16;" edge="1" parent="1" source="D3yn_jxY5x2qavKiKTVe-1" target="D3yn_jxY5x2qavKiKTVe-2">
          <mxGeometry relative="1" as="geometry" />
        </mxCell>
        <mxCell id="D3yn_jxY5x2qavKiKTVe-1" value="开始" style="rounded=0;whiteSpace=wrap;html=1;fontSize=16;" vertex="1" parent="1">
          <mxGeometry x="80" y="555" width="70" height="65" as="geometry" />
        </mxCell>
        <mxCell id="D3yn_jxY5x2qavKiKTVe-7" value="" style="edgeStyle=orthogonalEdgeStyle;rounded=0;orthogonalLoop=1;jettySize=auto;html=1;fontSize=16;" edge="1" parent="1" source="D3yn_jxY5x2qavKiKTVe-2" target="D3yn_jxY5x2qavKiKTVe-6">
          <mxGeometry relative="1" as="geometry" />
        </mxCell>
        <mxCell id="D3yn_jxY5x2qavKiKTVe-21" value="" style="edgeStyle=orthogonalEdgeStyle;rounded=0;orthogonalLoop=1;jettySize=auto;html=1;fontSize=16;" edge="1" parent="1" source="D3yn_jxY5x2qavKiKTVe-2" target="D3yn_jxY5x2qavKiKTVe-20">
          <mxGeometry relative="1" as="geometry" />
        </mxCell>
        <mxCell id="D3yn_jxY5x2qavKiKTVe-2" value="Launch.exe" style="rounded=0;whiteSpace=wrap;html=1;fontSize=16;" vertex="1" parent="1">
          <mxGeometry x="210" y="555" width="100" height="65" as="geometry" />
        </mxCell>
        <mxCell id="D3yn_jxY5x2qavKiKTVe-9" value="" style="edgeStyle=orthogonalEdgeStyle;rounded=0;orthogonalLoop=1;jettySize=auto;html=1;fontSize=16;" edge="1" parent="1" source="D3yn_jxY5x2qavKiKTVe-6" target="D3yn_jxY5x2qavKiKTVe-8">
          <mxGeometry relative="1" as="geometry" />
        </mxCell>
        <mxCell id="D3yn_jxY5x2qavKiKTVe-6" value="打开进程获得句柄" style="rounded=1;whiteSpace=wrap;html=1;fontSize=16;" vertex="1" parent="1">
          <mxGeometry x="210" y="670" width="100" height="65" as="geometry" />
        </mxCell>
        <mxCell id="D3yn_jxY5x2qavKiKTVe-8" value="CreateProcess" style="rounded=1;whiteSpace=wrap;html=1;fontSize=16;" vertex="1" parent="1">
          <mxGeometry x="210" y="790" width="100" height="65" as="geometry" />
        </mxCell>
        <mxCell id="D3yn_jxY5x2qavKiKTVe-14" value="" style="edgeStyle=orthogonalEdgeStyle;rounded=0;orthogonalLoop=1;jettySize=auto;html=1;fontSize=16;" edge="1" parent="1" source="D3yn_jxY5x2qavKiKTVe-10" target="D3yn_jxY5x2qavKiKTVe-13">
          <mxGeometry relative="1" as="geometry" />
        </mxCell>
        <mxCell id="D3yn_jxY5x2qavKiKTVe-10" value="ByPass.dll" style="rounded=1;whiteSpace=wrap;html=1;fontSize=16;" vertex="1" parent="1">
          <mxGeometry x="694" y="675" width="100" height="65" as="geometry" />
        </mxCell>
        <mxCell id="D3yn_jxY5x2qavKiKTVe-13" value="加载驱动绕过&lt;div style=&quot;font-size: 16px;&quot;&gt;MiHoYoProtect.sys&lt;br style=&quot;font-size: 16px;&quot;&gt;&lt;/div&gt;" style="rounded=1;whiteSpace=wrap;html=1;fontSize=16;" vertex="1" parent="1">
          <mxGeometry x="669" y="790" width="150" height="65" as="geometry" />
        </mxCell>
        <mxCell id="D3yn_jxY5x2qavKiKTVe-19" value="" style="edgeStyle=orthogonalEdgeStyle;rounded=0;orthogonalLoop=1;jettySize=auto;html=1;fontSize=16;" edge="1" parent="1" source="D3yn_jxY5x2qavKiKTVe-15" target="D3yn_jxY5x2qavKiKTVe-18">
          <mxGeometry relative="1" as="geometry" />
        </mxCell>
        <mxCell id="D3yn_jxY5x2qavKiKTVe-15" value="Cheat.dll" style="rounded=1;whiteSpace=wrap;html=1;fontSize=16;" vertex="1" parent="1">
          <mxGeometry x="824" y="675" width="100" height="65" as="geometry" />
        </mxCell>
        <mxCell id="D3yn_jxY5x2qavKiKTVe-18" value="&lt;div style=&quot;font-size: 16px;&quot;&gt;实现游戏作弊方式&lt;br style=&quot;font-size: 16px;&quot;&gt;&lt;/div&gt;" style="rounded=1;whiteSpace=wrap;html=1;fontSize=16;" vertex="1" parent="1">
          <mxGeometry x="824" y="790" width="100" height="65" as="geometry" />
        </mxCell>
        <mxCell id="D3yn_jxY5x2qavKiKTVe-23" value="" style="edgeStyle=orthogonalEdgeStyle;rounded=0;orthogonalLoop=1;jettySize=auto;html=1;fontSize=16;" edge="1" parent="1" source="D3yn_jxY5x2qavKiKTVe-20" target="D3yn_jxY5x2qavKiKTVe-22">
          <mxGeometry relative="1" as="geometry" />
        </mxCell>
        <mxCell id="D3yn_jxY5x2qavKiKTVe-28" value="" style="edgeStyle=orthogonalEdgeStyle;rounded=0;orthogonalLoop=1;jettySize=auto;html=1;fontSize=16;" edge="1" parent="1" source="D3yn_jxY5x2qavKiKTVe-20" target="D3yn_jxY5x2qavKiKTVe-27">
          <mxGeometry relative="1" as="geometry" />
        </mxCell>
        <mxCell id="D3yn_jxY5x2qavKiKTVe-20" value="将Dll的文件路径放在游戏内存中" style="rounded=0;whiteSpace=wrap;html=1;fontSize=16;" vertex="1" parent="1">
          <mxGeometry x="444" y="555" width="120" height="65" as="geometry" />
        </mxCell>
        <mxCell id="D3yn_jxY5x2qavKiKTVe-22" value="" style="rounded=1;whiteSpace=wrap;html=1;fontSize=16;" vertex="1" parent="1">
          <mxGeometry x="390" y="673" width="228" height="177" as="geometry" />
        </mxCell>
        <mxCell id="D3yn_jxY5x2qavKiKTVe-26" value="" style="edgeStyle=orthogonalEdgeStyle;rounded=0;orthogonalLoop=1;jettySize=auto;html=1;fontSize=16;" edge="1" parent="1" source="D3yn_jxY5x2qavKiKTVe-24" target="D3yn_jxY5x2qavKiKTVe-25">
          <mxGeometry relative="1" as="geometry" />
        </mxCell>
        <mxCell id="D3yn_jxY5x2qavKiKTVe-24" value="先VirtualProtect修改游戏内存属性" style="rounded=1;whiteSpace=wrap;html=1;fontSize=16;" vertex="1" parent="1">
          <mxGeometry x="410" y="690" width="190" height="60" as="geometry" />
        </mxCell>
        <mxCell id="D3yn_jxY5x2qavKiKTVe-25" value="再FlushInstructionCache将缓存的指令写入内存" style="rounded=1;whiteSpace=wrap;html=1;fontSize=16;" vertex="1" parent="1">
          <mxGeometry x="410" y="760" width="190" height="80" as="geometry" />
        </mxCell>
        <mxCell id="D3yn_jxY5x2qavKiKTVe-29" style="edgeStyle=orthogonalEdgeStyle;rounded=0;orthogonalLoop=1;jettySize=auto;html=1;entryX=0.5;entryY=0;entryDx=0;entryDy=0;fontSize=16;" edge="1" parent="1" source="D3yn_jxY5x2qavKiKTVe-27" target="D3yn_jxY5x2qavKiKTVe-10">
          <mxGeometry relative="1" as="geometry" />
        </mxCell>
        <mxCell id="D3yn_jxY5x2qavKiKTVe-30" style="edgeStyle=orthogonalEdgeStyle;rounded=0;orthogonalLoop=1;jettySize=auto;html=1;fontSize=16;" edge="1" parent="1" source="D3yn_jxY5x2qavKiKTVe-27" target="D3yn_jxY5x2qavKiKTVe-15">
          <mxGeometry relative="1" as="geometry" />
        </mxCell>
        <mxCell id="D3yn_jxY5x2qavKiKTVe-32" value="" style="edgeStyle=orthogonalEdgeStyle;rounded=0;orthogonalLoop=1;jettySize=auto;html=1;fontSize=16;" edge="1" parent="1" source="D3yn_jxY5x2qavKiKTVe-27" target="D3yn_jxY5x2qavKiKTVe-31">
          <mxGeometry relative="1" as="geometry" />
        </mxCell>
        <mxCell id="D3yn_jxY5x2qavKiKTVe-27" value="加载Dll" style="rounded=0;whiteSpace=wrap;html=1;fontSize=16;" vertex="1" parent="1">
          <mxGeometry x="744" y="555" width="120" height="65" as="geometry" />
        </mxCell>
        <mxCell id="D3yn_jxY5x2qavKiKTVe-31" value="结束" style="rounded=0;whiteSpace=wrap;html=1;fontSize=16;" vertex="1" parent="1">
          <mxGeometry x="944" y="560" width="86" height="55" as="geometry" />
        </mxCell>
      </root>
    </mxGraphModel>
  </diagram>
</mxfile>
